# xmcd
#
# Track frame offsets: 
#        150
#        10849
#        38682
#        61823
#        86602
#        111563
#        132488
#        152000
#        184917
#        208035
#        228704
#        248606
#
# Disc length: 3673 seconds
#
# Revision: 0
# Processed by: cddbd v1.5.2PL0 Copyright (c) Steve Scherf et al.
# Submitted via: ExactAudioCopy v0.99pb5
#
DISCID=a00e570c
DTITLE=Separatist - The Motionless Apocalypse
DYEAR=2008
DGENRE=Death Metal
TTITLE0=Prelude
TTITLE1=The Reprieve
TTITLE2=Plagues
TTITLE3=A Gentle Reminder
TTITLE4=Anaclasis
TTITLE5=Untitled
TTITLE6=In Dissonant Silence Pt. 1: Censura
TTITLE7=In Dissonant Silence Pt. 2: Decessus
TTITLE8=The Earth Defiled
TTITLE9=I Despice
TTITLE10=Like Shattered Stars
TTITLE11=The Harvest
EXTD=
EXTT0=
EXTT1=
EXTT2=
EXTT3=
EXTT4=
EXTT5=
EXTT6=
EXTT7=
EXTT8=
EXTT9=
EXTT10=
EXTT11=
PLAYORDER=
